<svg width="140" height="32" viewBox="0 0 140 32" fill="none" xmlns="http://www.w3.org/2000/svg">
  <g clip-path="url(#clip0_1157_589)">
  <path d="M34.0254 4.01758H36.335V25.5406H34.0254V4.01758Z" fill="currentColor"></path>
  <path d="M38.6934 17.8594C38.6934 13.0895 41.9235 9.85938 46.0741 9.85938C50.2247 9.85938 53.4549 13.0895 53.4549 17.8594C53.4549 22.6292 50.2247 25.8594 46.0741 25.8594C41.9235 25.8594 38.6934 22.6292 38.6934 17.8594ZM51.1452 17.8594C51.1452 14.328 48.8356 12.0184 46.0741 12.0184C43.3126 12.0184 41.003 14.328 41.003 17.8594C41.003 21.3908 43.3126 23.7004 46.0741 23.7004C48.8356 23.7004 51.1452 21.3908 51.1452 17.8594Z" fill="currentColor"></path>
  <path d="M55.4834 26.7777H57.793C57.9436 28.3174 59.4834 29.8572 62.4122 29.8572C65.1737 29.8572 67.0315 28.1668 67.0315 25.5559V22.7944H66.8809C65.6424 24.1835 63.952 24.9534 61.9604 24.9534C57.9604 24.9534 54.8809 21.8739 54.8809 17.422C54.8809 12.9701 57.9604 9.89062 61.9604 9.89062C63.952 9.89062 65.8097 10.8111 66.8809 12.2002H67.0315L67.3327 10.2086H69.3244V25.5894C69.3244 29.4387 66.7135 32.0496 62.4122 32.0496C58.111 32.0496 55.6507 29.4387 55.5001 26.8279L55.4834 26.7777ZM67.0147 17.3885C67.0147 14.1584 64.8558 11.9994 62.0942 11.9994C59.3327 11.9994 57.1737 14.1584 57.1737 17.3885C57.1737 20.6187 59.3327 22.7777 62.0942 22.7777C64.8558 22.7777 67.0147 20.6187 67.0147 17.3885Z" fill="currentColor"></path>
  <path d="M72.3691 4.31836H74.98V6.92924H72.3691V4.31836ZM72.5198 10.1761H74.8294V25.5569H72.5198V10.1761Z" fill="currentColor"></path>
  <path d="M77.1211 17.8594C77.1211 13.0895 80.3512 9.85938 84.5018 9.85938C87.8826 9.85938 90.4935 11.851 91.2633 15.0811H88.9537C88.3345 13.0895 86.6441 12.0016 84.5018 12.0016C81.7403 12.0016 79.4307 14.3113 79.4307 17.8426C79.4307 21.374 81.7403 23.6836 84.5018 23.6836C86.6608 23.6836 88.3512 22.6125 88.9537 20.4535H91.2633C90.4935 23.8343 87.8826 25.8426 84.5018 25.8426C80.3512 25.8426 77.1211 22.6125 77.1211 17.8426V17.8594Z" fill="currentColor"></path>
  <path d="M92.3839 21.0895H94.6936C94.6936 22.4786 96.0827 23.7004 98.5429 23.7004C101.003 23.7004 102.225 22.6292 102.225 21.3908C102.225 20.1523 101.455 19.3991 99.6141 19.0811L97.0032 18.6125C94.2417 18.1439 92.7019 16.7715 92.7019 14.3113C92.7019 11.851 94.5429 9.85938 98.3923 9.85938C102.242 9.85938 104.384 12.169 104.384 14.6292H102.074C102.074 13.2401 100.685 12.0184 98.3756 12.0184C96.0659 12.0184 94.9948 13.0895 94.9948 14.328C94.9948 15.3991 95.6141 16.1355 97.4551 16.487L100.066 16.9556C103.145 17.5079 104.518 18.9472 104.518 21.4075C104.518 23.8677 102.526 25.8594 98.5262 25.8594C94.5262 25.8594 92.3672 23.5498 92.3672 21.0895H92.3839Z" fill="currentColor"></path>
  <path d="M108.136 22.9286V12.3177H105.676V10.1587H108.136V5.85742H110.446V10.1587H113.977V12.3177H110.446V22.4599C110.446 23.0792 110.747 23.3804 111.366 23.3804H113.492V25.5394H110.898C109.207 25.5394 108.136 24.4683 108.136 22.9286Z" fill="currentColor"></path>
  <path d="M115.416 21.0895C115.416 18.1606 117.257 16.169 121.558 16.169H125.709V15.7004C125.709 13.3908 124.32 12.0184 122.027 12.0184C119.734 12.0184 118.345 13.2401 118.178 14.6292H115.868C116.019 12.169 118.178 9.85938 122.027 9.85938C125.876 9.85938 128.019 12.0184 128.019 15.7004V25.5414H126.027L125.726 23.7004H125.575C125.575 23.7004 124.186 25.8594 120.805 25.8594C117.424 25.8594 115.416 23.8677 115.416 21.0895ZM125.709 18.9305V18.3113H121.558C118.797 18.3113 117.709 19.5498 117.709 21.0728C117.709 22.5958 118.78 23.6836 120.788 23.6836C123.868 23.6836 125.709 21.8426 125.709 18.9138V18.9305Z" fill="currentColor"></path>
  <path d="M131.179 10.1758H133.17L133.472 11.7155H133.622C134.242 10.795 134.844 10.1758 136.551 10.1758H139.162V12.3348H136.852C134.693 12.3348 133.472 13.5565 133.472 15.7155V25.5565H131.162V10.1758H131.179Z" fill="currentColor"></path>
  <path d="M16.5525 11.8159L10.6445 8.11715L12.6696 0H13.6403L16.5525 11.8159Z" fill="currentColor"></path>
  <path d="M16.5525 17.7578L10.6445 21.4566L12.6529 29.5737H13.6236L16.5357 17.7578H16.5525Z" fill="currentColor"></path>
  <path d="M0 15.2633L9.74059 17.757L14.4937 14.7779L9.74059 11.7988L0 14.2926V15.2633Z" fill="currentColor"></path>
  <path d="M26.2933 14.2926L16.5527 11.7988V17.757L26.2933 15.2633V14.2926Z" fill="currentColor"></path>
  </g>
  <defs>
  <clipPath id="clip0_1157_589">
  <rect width="139.18" height="32" fill="currentColor"></rect>
  </clipPath>
  </defs>
</svg>
